<svg id="Capa_1" data-name="Capa 1" xmlns="http://www.w3.org/2000/svg" viewBox="0 0 46.87 46.8"><defs><style></style></defs><path fill="grey" d="M22.29,40.83a17.15,17.15,0,0,1-11.9-5.44A17,17,0,0,1,5.54,23.2a17,17,0,0,1,5.14-12.49A17,17,0,0,1,23.17,5.56a17,17,0,0,1,12.2,4.85,17.1,17.1,0,0,1,5.43,11.9l-6.17-1.83A11.58,11.58,0,0,0,30.52,14a11.41,11.41,0,0,0-7.35-2.53,11.32,11.32,0,0,0-8.3,3.45,11.34,11.34,0,0,0-3.45,8.31A11.36,11.36,0,0,0,14,30.54a11.61,11.61,0,0,0,6.5,4.12Zm13.37.66-2.2,6.68a1.34,1.34,0,0,1-1.4,1,1.46,1.46,0,0,1-1.4-1.07L24,25.84a1.31,1.31,0,0,1,.37-1.47A1.32,1.32,0,0,1,25.82,24l22.26,6.69a1.43,1.43,0,0,1,1.06,1.39,1.31,1.31,0,0,1-1,1.4l-6.69,2.2,9.7,9.7a4.08,4.08,0,1,1-5.8,5.73Z" transform="translate(-5.54 -5.56)"/></svg>