<?xml version="1.0" encoding="utf-8"?>
<!-- Generator: Adobe Illustrator 25.0.1, SVG Export Plug-In . SVG Version: 6.00 Build 0)  -->
<svg version="1.1" id="Capa_1" xmlns="http://www.w3.org/2000/svg" xmlns:xlink="http://www.w3.org/1999/xlink" x="0px" y="0px"
	 viewBox="0 0 54 54" style="enable-background:new 0 0 54 54;" xml:space="preserve">
<style type="text/css">
	.st0{fill:#E1CFAB;}
</style>
<path class="st0" d="M7.2,24.2c-1.6,0-2.9-0.6-4-1.7c-1.1-1.1-1.7-2.4-1.7-4V7.2c0-1.6,0.6-2.9,1.7-4s2.4-1.7,4-1.7h11.3
	c1.6,0,2.9,0.6,4,1.7c1.1,1.1,1.7,2.4,1.7,4v11.3c0,1.6-0.6,2.9-1.7,4c-1.1,1.1-2.4,1.7-4,1.7H7.2z M7.2,52.4c-1.6,0-2.9-0.6-4-1.7
	s-1.7-2.4-1.7-4V35.5c0-1.6,0.6-2.9,1.7-4s2.4-1.7,4-1.7h11.3c1.6,0,2.9,0.6,4,1.7c1.1,1.1,1.7,2.4,1.7,4v11.3c0,1.6-0.6,2.9-1.7,4
	c-1.1,1.1-2.4,1.7-4,1.7H7.2z M35.5,24.2c-1.6,0-2.9-0.6-4-1.7c-1.1-1.1-1.7-2.4-1.7-4V7.2c0-1.6,0.6-2.9,1.7-4
	c1.1-1.1,2.4-1.7,4-1.7h11.3c1.6,0,2.9,0.6,4,1.7c1.1,1.1,1.7,2.4,1.7,4v11.3c0,1.6-0.6,2.9-1.7,4c-1.1,1.1-2.4,1.7-4,1.7H35.5z
	 M35.5,52.4c-1.6,0-2.9-0.6-4-1.7c-1.1-1.1-1.7-2.4-1.7-4V35.5c0-1.6,0.6-2.9,1.7-4c1.1-1.1,2.4-1.7,4-1.7h11.3c1.6,0,2.9,0.6,4,1.7
	c1.1,1.1,1.7,2.4,1.7,4v11.3c0,1.6-0.6,2.9-1.7,4c-1.1,1.1-2.4,1.7-4,1.7H35.5z M7.2,18.5h11.3V7.2H7.2V18.5z M35.5,18.5h11.3V7.2
	H35.5V18.5z M35.5,46.8h11.3V35.5H35.5V46.8z M7.2,46.8h11.3V35.5H7.2V46.8z"/>
</svg>
