<?xml version="1.0" encoding="utf-8"?>
<!-- Generator: Adobe Illustrator 25.0.1, SVG Export Plug-In . SVG Version: 6.00 Build 0)  -->
<svg version="1.1" id="Capa_1" xmlns="http://www.w3.org/2000/svg" xmlns:xlink="http://www.w3.org/1999/xlink" x="0px" y="0px"
	 viewBox="0 0 52.4 52.4" style="enable-background:new 0 0 52.4 52.4;" xml:space="preserve">
<style type="text/css">
	.st0{fill:#EE7A54;}
</style>
<path class="st0" d="M26.2,41.6l15.2-15.1c0.7-0.7,1.6-1.1,2.7-1.1s2,0.3,2.8,1.1c0.7,0.7,1.1,1.6,1.1,2.7s-0.4,2-1.1,2.7L29,49.9
	c-0.4,0.4-0.8,0.7-1.3,0.8S26.7,51,26.2,51s-1-0.1-1.5-0.2s-0.9-0.4-1.3-0.8L5.6,32c-0.7-0.7-1.1-1.6-1.1-2.7c0-1.1,0.3-2,1.1-2.8
	c0.7-0.7,1.6-1.1,2.7-1.1s2,0.4,2.7,1.1L26.2,41.6z M26.2,18.2L41.4,3.1C42.2,2.4,43.1,2,44.1,2c1.1,0,2,0.3,2.8,1.1
	C47.6,3.8,48,4.8,48,5.9s-0.4,2-1.1,2.7L29,26.5c-0.4,0.4-0.8,0.7-1.3,0.8s-0.9,0.2-1.5,0.2s-1-0.1-1.5-0.2s-0.9-0.4-1.3-0.8
	L5.6,8.6C4.8,7.9,4.5,7,4.4,5.9s0.3-2,1.1-2.8c0.7-0.7,1.6-1.1,2.7-1.1s2,0.4,2.7,1.1L26.2,18.2z"/>
</svg>
