<?xml version="1.0" encoding="utf-8"?>
<!-- Generator: Adobe Illustrator 25.0.1, SVG Export Plug-In . SVG Version: 6.00 Build 0)  -->
<svg version="1.1" id="Capa_1" xmlns="http://www.w3.org/2000/svg" xmlns:xlink="http://www.w3.org/1999/xlink" x="0px" y="0px"
	 viewBox="0 0 54 54" style="enable-background:new 0 0 54 54;" xml:space="preserve">
<style type="text/css">
	.st0{fill:#E1CFAB;}
</style>
<path class="st0" d="M27,42.4l15.2-15.1c0.7-0.7,1.6-1.1,2.7-1.1s2,0.3,2.8,1.1c0.7,0.7,1.1,1.6,1.1,2.7s-0.4,2-1.1,2.7l-17.9,18
	c-0.4,0.4-0.8,0.7-1.3,0.8s-1,0.3-1.5,0.3s-1-0.1-1.5-0.2s-0.9-0.4-1.3-0.8l-17.8-18c-0.7-0.7-1.1-1.6-1.1-2.7s0.3-2,1.1-2.8
	c0.7-0.7,1.6-1.1,2.7-1.1s2,0.4,2.7,1.1L27,42.4z M27,19L42.2,3.9c0.8-0.7,1.7-1.1,2.7-1.1c1.1,0,2,0.3,2.8,1.1
	c0.7,0.7,1.1,1.7,1.1,2.8s-0.4,2-1.1,2.7L29.8,27.3c-0.4,0.4-0.8,0.7-1.3,0.8s-0.9,0.2-1.5,0.2s-1-0.1-1.5-0.2s-0.9-0.4-1.3-0.8
	L6.4,9.4C5.6,8.7,5.3,7.8,5.2,6.7s0.3-2,1.1-2.8C7,3.2,7.9,2.8,9,2.8s2,0.4,2.7,1.1L27,19z"/>
</svg>
